<svg xmlns="http://www.w3.org/2000/svg" version="1.1" width="364.193" height="117.193" viewBox="0 0 364.193 117.193">
<defs>
<clipPath id="clip_1">
<path transform="matrix(1,0,0,-1,0,117.193)" d="M0 117.193H364.193V0H0Z"></path>
</clipPath>
</defs>
<g>
<g clip-path="url(#clip_1)">
<path transform="matrix(1,0,0,-1,124.0337,53.272104)" d="M0 0H3.274V-2.481H0V-10.48H-3.142V5.808H0ZM-13.251-6.943C-12.434-6.943-11.72-6.732-11.113-6.256-10.533-5.808-10.241-5.227-10.241-4.54-10.241-3.881-10.533-3.326-11.113-2.851-11.72-2.402-12.434-2.165-13.251-2.165-14.097-2.165-14.783-2.402-15.363-2.851-15.97-3.326-16.261-3.881-16.261-4.54-16.261-5.227-15.97-5.808-15.363-6.256-14.783-6.732-14.097-6.943-13.251-6.943M-16.895 6.203H-9.609001V3.907H-16.895ZM-12.169-14.387H.105V-16.816H-12.935C-15.759-16.816-17.157-15.521-17.157-12.883V-10.348H-13.991V-12.514C-13.991-13.779-13.384-14.387-12.169-14.387M-13.251-9.16C-15.047-9.16-16.524-8.711-17.634-7.787-18.769-6.891-19.323-5.808-19.323-4.54-19.323-3.3-18.769-2.218-17.634-1.294-16.524-.396-15.047 .053-13.251 .053-11.456 .053-10.005-.396-8.87-1.294-7.761-2.218-7.181-3.3-7.181-4.54-7.181-5.808-7.761-6.891-8.87-7.787-10.005-8.711-11.456-9.16-13.251-9.16M-6.15 .818H-20.352V3.089H-6.15Z" fill="#231916"></path>
<path transform="matrix(1,0,0,-1,137.103,60.2155)" d="M0 0C.818 0 1.53 .211 2.139 .687 2.719 1.136 3.01 1.717 3.01 2.403 3.01 3.063 2.719 3.617 2.139 4.093 1.53 4.541 .818 4.778 0 4.778-.844 4.778-1.531 4.541-2.111 4.093-2.72 3.617-3.01 3.063-3.01 2.403-3.01 1.717-2.72 1.136-2.111 .687-1.531 .211-.844 0 0 0M-3.643 13.146H3.642V10.85H-3.643ZM7.048 7.762H-7.154V10.033H7.048ZM-1.557-2.086C-2.693-1.9-3.643-1.479-4.436-.818-5.543 .08-6.072 1.136-6.072 2.403-6.072 3.644-5.518 4.726-4.383 5.649-3.273 6.547-1.795 6.996 0 6.996 1.795 6.996 3.246 6.547 4.382 5.649 5.49 4.726 6.072 3.644 6.072 2.403 6.072 1.136 5.517 .08 4.435-.818 3.643-1.451 2.719-1.875 1.609-2.086V-4.488H5.121C8.289-4.488 9.873-3.273 9.873-.818V12.751H13.014V5.148H16.288V2.641H13.014V-9.926H9.873V-5.676C8.922-6.52 7.496-6.943 5.648-6.943H-7.656V-4.488H-1.557Z" fill="#231916"></path>
<path transform="matrix(1,0,0,-1,174.168,47.4645)" d="M0 0H3.088V-12.011H0V-6.837H-2.086V-11.457H-5.121V0H-2.086V-4.355H0ZM-4.988-14.679C-6.204-14.679-7.207-14.995-7.946-15.603-8.712-16.235-9.081-16.974-9.081-17.819-9.081-18.69-8.712-19.429-7.946-20.063-7.207-20.696-6.23-21.013-4.988-21.013-3.775-21.013-2.799-20.696-2.033-20.063-1.293-19.456-.898-18.716-.898-17.819-.898-16.974-1.293-16.235-2.033-15.603-2.824-14.995-3.801-14.679-4.988-14.679M2.244-17.819C2.244-19.351 1.557-20.644 .211-21.753-1.162-22.86-2.878-23.415-4.988-23.415-7.102-23.415-8.817-22.86-10.163-21.753-11.536-20.644-12.223-19.351-12.223-17.819-12.223-16.315-11.536-15.021-10.163-13.913-8.817-12.856-7.102-12.302-4.988-12.302-2.878-12.302-1.162-12.856 .211-13.913 1.557-15.021 2.244-16.315 2.244-17.819M-11.193-1.241C-11.193-4.065-10.665-6.098-9.557-7.312-8.658-8.342-7.602-8.949-6.441-9.16V-11.642C-8.447-11.378-10.163-10.586-11.641-9.213-12.064-8.844-12.406-8.421-12.725-7.92-13.041-8.421-13.41-8.844-13.807-9.213-15.285-10.586-17.027-11.378-19.006-11.642V-9.16C-17.846-8.949-16.815-8.342-15.891-7.312-14.809-6.098-14.255-4.065-14.255-1.241V-.317H-11.193Z" fill="#231916"></path>
<path transform="matrix(1,0,0,-1,0,117.193)" d="M194.443 62.786H199.08899V64.765H194.443ZM194.893 55.05C193.678 55.05 192.701 54.733 191.988 54.126 191.25 53.493 190.879 52.755 190.879 51.909 190.879 51.038 191.223 50.3 191.963 49.665 192.674 49.032 193.651 48.716 194.893 48.716 196.107 48.716 197.084 49.032 197.822 49.665 198.534 50.272 198.904 51.013 198.904 51.909 198.904 52.755 198.534 53.493 197.797 54.126 197.057 54.733 196.08 55.05 194.893 55.05M202.047 51.909C202.047 50.405 201.386 49.11 200.066 48.003 198.72 46.868 197.004 46.313 194.893 46.313 192.78 46.313 191.064 46.868 189.744 48.003 188.398 49.11 187.738 50.405 187.738 51.909 187.738 53.388 188.398 54.681 189.744 55.79 191.064 56.872 192.78 57.427 194.893 57.427 197.004 57.427 198.72 56.872 200.066 55.79 201.386 54.681 202.047 53.388 202.047 51.909M191.354 66.957H184.887V62.363C184.887 61.36 185.336 60.885 186.234 60.885H191.354ZM194.443 58.482H185.468C182.986 58.482 181.773 59.75 181.773 62.337V69.358H192.729C193.863 69.358 194.443 68.778 194.443 67.616V67.194H199.089V69.729H202.23V57.505H199.089V60.357H194.443Z" fill="#231916"></path>
<path transform="matrix(1,0,0,-1,223.4297,63.9635)" d="M0 0H-11.299V-2.455C-11.299-3.326-10.876-3.748-10.004-3.748H0ZM3.142 .633V-6.125H-10.665C-13.199-6.125-14.439-4.963-14.439-2.588V2.375H1.4C2.561 2.375 3.142 1.795 3.142 .633M-.924 16.234C1.717 16.234 3.063 15.021 3.063 12.645V7.128H5.939V4.619H-17.212V7.128H-.105V12.117C-.105 13.278-.766 13.859-2.06 13.859H-14.915V16.234Z" fill="#231916"></path>
<path transform="matrix(1,0,0,-1,246.5557,61.983)" d="M0 0V1.9H-5.411V0C-4.566 .078-3.643 .131-2.64 .131-1.688 .131-.818 .078 0 0M-2.666-6.125C-.924-6.125 .476-5.992 1.531-5.676 2.534-5.412 3.063-4.91 3.063-4.225 3.063-3.539 2.534-3.037 1.531-2.721 .476-2.43-.924-2.271-2.666-2.271-4.407-2.271-5.78-2.43-6.81-2.721-7.866-3.037-8.368-3.539-8.368-4.225-8.368-4.91-7.866-5.412-6.81-5.676-5.78-5.992-4.407-6.125-2.666-6.125M-8.71 10.058C-8.71 9.213-8.183 8.632-7.101 8.368-6.044 8.077-4.593 7.945-2.719 7.945-.871 7.945 .607 8.077 1.716 8.368 2.799 8.632 3.353 9.213 3.353 10.058 3.353 10.849 2.799 11.43 1.716 11.773 .607 12.09-.871 12.248-2.719 12.248-4.566 12.248-6.044 12.09-7.101 11.773-8.183 11.43-8.71 10.849-8.71 10.058M-11.958 10.084C-11.958 11.614-11.166 12.75-9.556 13.489-7.972 14.228-5.701 14.598-2.692 14.598 .317 14.598 2.613 14.228 4.224 13.516 5.808 12.776 6.6 11.641 6.6 10.11 6.6 8.526 5.808 7.364 4.224 6.679 2.613 5.966 .317 5.622-2.692 5.622-5.701 5.622-7.972 5.966-9.556 6.679-11.166 7.364-11.958 8.5-11.958 10.084M-14.255 4.382H8.896V1.9H3.168V-.607C3.432-.713 3.696-.818 3.96-.924 5.544-1.637 6.337-2.721 6.337-4.197 6.337-5.676 5.544-6.785 3.96-7.471 2.376-8.184 .159-8.527-2.64-8.527-5.464-8.527-7.655-8.184-9.239-7.471-10.821-6.785-11.614-5.676-11.614-4.197-11.614-2.721-10.821-1.637-9.239-.924-9.026-.846-8.816-.766-8.579-.66V1.9H-14.255Z" fill="#231916"></path>
<path transform="matrix(1,0,0,-1,276.5986,70.141208)" d="M0 0V13.385H-5.938V15.945H0V22.677H3.142V0ZM-9.45 18.98C-9.45 15.127-8.843 12.303-7.575 10.506-6.521 8.977-5.173 7.893-3.563 7.312V4.805C-5.966 5.279-8.024 6.547-9.714 8.553-10.216 9.135-10.638 9.795-11.007 10.559-11.377 9.795-11.825 9.135-12.302 8.553-14.018 6.547-16.075 5.279-18.452 4.805V7.312C-16.842 7.893-15.495 8.977-14.438 10.506-13.198 12.303-12.565 15.127-12.565 18.98V22.333H-9.45Z" fill="#231916"></path>
<path transform="matrix(1,0,0,-1,0,117.193)" d="M301.178 69.729H304.346V47.051996H301.178ZM294.209 54.708V61.466H287.74V56.608C287.74 55.341 288.295 54.708 289.456 54.708ZM297.297 52.253H288.823C286.025 52.253 284.627 53.626 284.627 56.423V69.358H287.74V63.868H294.209V69.358H297.297Z" fill="#231916"></path>
<path transform="matrix(1,0,0,-1,321.4521,49.022104)" d="M0 0C0-3.326 .897-5.808 2.746-7.497 4.436-9.081 6.362-9.926 8.474-10.058V-12.486C5.571-12.408 3.011-11.457 .739-9.661-.21-8.923-1.003-7.999-1.584-6.942-2.217-7.999-2.982-8.923-3.933-9.661-6.202-11.457-8.79-12.408-11.667-12.486V-10.058C-9.556-9.926-7.655-9.081-5.938-7.497-4.118-5.808-3.192-3.326-3.192 0V1.24H0ZM9.979-18.77H-13.171V-16.209H9.979Z" fill="#231916"></path>
<path transform="matrix(1,0,0,-1,95.2134,61.5983)" d="M0 0C-.934 9.141-11.339 16.627-23.239 16.727-35.146 16.822-44.032 9.492-43.098 .355-42.164-8.783-31.759-16.273-19.857-16.373-7.955-16.467 .938-9.141 0 0M-39.367 2.285C-40.177 9.658-32.453 15.572-22.114 15.49-11.775 15.408-2.732 9.371-1.923 2.008-1.114-5.369-8.832-11.273-19.174-11.191-29.513-11.119-38.556-5.078-39.367 2.285" fill="#f7bb82"></path>
<path transform="matrix(1,0,0,-1,55.5288,58.052404)" d="M0 0C-6.814-7.116-6.924-18.069-.25-24.462 6.424-30.849 17.364-30.259 24.175-23.14 30.992-16.022 31.104-5.069 24.427 1.322 17.754 7.71 6.815 7.12 0 0M21.719-20.099C15.857-26.231 6.446-26.735 .702-21.235-5.041-15.739-4.943-6.317 .923-.193 6.786 5.931 16.198 6.438 21.937 .943 27.679-4.558 27.583-13.979 21.719-20.099" fill="#f4a051"></path>
<path transform="matrix(1,0,0,-1,44.8286,39.0534)" d="M0 0C-12.649-10.014-15.868-24.529-7.194-32.41 1.482-40.297 18.77-38.566 31.421-28.553 44.071-18.54 47.292-4.029 38.614 3.855 29.933 11.74 12.647 10.018 0 0M11.323 3.928C23.517 8.494 35.571 3.873 38.251-6.395 40.933-16.669 33.221-28.701 21.029-33.266 8.836-37.84-3.222-33.215-5.899-22.945-8.583-12.678-.867-.646 11.323 3.928" fill="#ed7100"></path>
</g>
</g>
</svg>