<svg xmlns="http://www.w3.org/2000/svg" viewBox="31 28 65.5 61" fill="none">
<path transform="matrix(1,0,0,-1,95.2134,61.5983)" d="M0 0C-.934 9.141-11.339 16.627-23.239 16.727-35.146 16.822-44.032 9.492-43.098 .355-42.164-8.783-31.759-16.273-19.857-16.373-7.955-16.467 .938-9.141 0 0M-39.367 2.285C-40.177 9.658-32.453 15.572-22.114 15.49-11.775 15.408-2.732 9.371-1.923 2.008-1.114-5.369-8.832-11.273-19.174-11.191-29.513-11.119-38.556-5.078-39.367 2.285" fill="#f7bb82"></path>
<path transform="matrix(1,0,0,-1,55.5288,58.052404)" d="M0 0C-6.814-7.116-6.924-18.069-.25-24.462 6.424-30.849 17.364-30.259 24.175-23.14 30.992-16.022 31.104-5.069 24.427 1.322 17.754 7.71 6.815 7.12 0 0M21.719-20.099C15.857-26.231 6.446-26.735 .702-21.235-5.041-15.739-4.943-6.317 .923-.193 6.786 5.931 16.198 6.438 21.937 .943 27.679-4.558 27.583-13.979 21.719-20.099" fill="#f4a051"></path>
<path transform="matrix(1,0,0,-1,44.8286,39.0534)" d="M0 0C-12.649-10.014-15.868-24.529-7.194-32.41 1.482-40.297 18.77-38.566 31.421-28.553 44.071-18.54 47.292-4.029 38.614 3.855 29.933 11.74 12.647 10.018 0 0M11.323 3.928C23.517 8.494 35.571 3.873 38.251-6.395 40.933-16.669 33.221-28.701 21.029-33.266 8.836-37.84-3.222-33.215-5.899-22.945-8.583-12.678-.867-.646 11.323 3.928" fill="#ed7100"></path>
</svg>